<svg version="1.1" xmlns="http://www.w3.org/2000/svg" xmlns:xlink="http://www.w3.org/1999/xlink"
    x="0px" y="0px" height="80px" viewBox="0 0 309.024 253.062"
    enable-background="new 0 0 309.024 253.062" xml:space="preserve"><g><defs><rect id="SVGID_1_" x="-151.37" y="-239.093" width="612" height="792"></rect></defs> <clipPath id="SVGID_2_"><use xlink:href="#SVGID_1_" overflow="visible"></use></clipPath> <path clip-path="url(#SVGID_2_)" d="M0.13,206.407L0.005,28.49c0,0-0.473-10.854,7.312-19.416c9.188-10.104,22-9.042,22-9.042
		h252.667c0,0,14.834-0.75,22.146,9.375c5.66,7.838,4.854,20.083,4.854,20.083v177.001L0.13,206.407z"></path> <rect x="34.873" y="103.399" clip-path="url(#SVGID_2_)" fill="#C4D9F2" width="34.016" height="34.016"></rect> <rect x="34.873" y="103.399" clip-path="url(#SVGID_2_)" fill="none" stroke="#000000" width="34.016" height="34.016"></rect> <rect x="69.123" y="103.399" clip-path="url(#SVGID_2_)" fill="#A9C6E9" width="34.016" height="34.016"></rect> <rect x="69.123" y="103.399" clip-path="url(#SVGID_2_)" fill="none" stroke="#000000" width="34.016" height="34.016"></rect> <rect x="103.373" y="103.399" clip-path="url(#SVGID_2_)" fill="#5291CE" width="34.016" height="34.016"></rect> <rect x="103.373" y="103.399" clip-path="url(#SVGID_2_)" fill="none" stroke="#000000" width="34.016" height="34.016"></rect> <rect x="137.623" y="103.399" clip-path="url(#SVGID_2_)" fill="#8BA612" width="34.016" height="34.016"></rect> <rect x="137.623" y="103.399" clip-path="url(#SVGID_2_)" fill="none" stroke="#000000" width="34.016" height="34.016"></rect> <rect x="171.873" y="103.399" clip-path="url(#SVGID_2_)" fill="#0062AE" width="34.016" height="34.016"></rect> <rect x="171.873" y="103.399" clip-path="url(#SVGID_2_)" fill="none" stroke="#000000" width="34.016" height="34.016"></rect> <rect x="137.623" y="69.149" clip-path="url(#SVGID_2_)" fill="#FFED00" width="34.016" height="34.016"></rect> <rect x="137.623" y="69.149" clip-path="url(#SVGID_2_)" fill="none" stroke="#000000" width="34.016" height="34.016"></rect> <rect x="137.623" y="34.899" clip-path="url(#SVGID_2_)" fill="#F07D1B" width="34.016" height="34.016"></rect> <rect x="137.623" y="34.899" clip-path="url(#SVGID_2_)" fill="none" stroke="#000000" width="34.016" height="34.016"></rect> <rect x="137.686" y="0.962" clip-path="url(#SVGID_2_)" fill="#F6D200" width="34.016" height="34.016"></rect> <rect x="137.686" y="0.962" clip-path="url(#SVGID_2_)" fill="none" stroke="#000000" width="34.016" height="34.016"></rect> <rect x="103.373" y="34.899" clip-path="url(#SVGID_2_)" fill="#E73137" width="34.016" height="34.016"></rect> <rect x="103.373" y="34.899" clip-path="url(#SVGID_2_)" fill="none" stroke="#000000" width="34.016" height="34.016"></rect> <rect x="171.873" y="34.899" clip-path="url(#SVGID_2_)" fill="#EC6771" width="34.016" height="34.016"></rect> <rect x="171.873" y="34.899" clip-path="url(#SVGID_2_)" fill="none" stroke="#000000" width="34.016" height="34.016"></rect> <rect x="206.123" y="34.899" clip-path="url(#SVGID_2_)" fill="#F39AA4" width="34.016" height="34.016"></rect> <rect x="206.123" y="34.899" clip-path="url(#SVGID_2_)" fill="none" stroke="#000000" width="34.016" height="34.016"></rect> <rect x="240.373" y="34.899" clip-path="url(#SVGID_2_)" fill="#F9CED5" width="34.016" height="34.016"></rect> <rect x="240.373" y="34.899" clip-path="url(#SVGID_2_)" fill="none" stroke="#000000" width="34.016" height="34.016"></rect> <rect x="274.404" y="34.993" clip-path="url(#SVGID_2_)" fill="#FCE6EB" width="34.016" height="34.016"></rect> <rect x="274.404" y="34.993" clip-path="url(#SVGID_2_)" fill="none" stroke="#000000" width="34.016" height="34.016"></rect> <rect x="137.623" y="137.649" clip-path="url(#SVGID_2_)" fill="#FFF15F" width="34.016" height="34.016"></rect> <rect x="137.623" y="137.649" clip-path="url(#SVGID_2_)" fill="none" stroke="#000000" width="34.016" height="34.016"></rect> <rect x="137.623" y="171.899" clip-path="url(#SVGID_2_)" fill="#FFF8BD" width="34.016" height="34.016"></rect> <rect x="137.623" y="171.899" clip-path="url(#SVGID_2_)" fill="none" stroke="#000000" width="34.016" height="34.016"></rect> <rect x="0.686" y="103.399" clip-path="url(#SVGID_2_)" fill-rule="evenodd" clip-rule="evenodd" fill="#E1EDFA" width="34.016" height="34.016"></rect> <rect x="0.686" y="103.399" clip-path="url(#SVGID_2_)" fill-rule="evenodd" clip-rule="evenodd" fill="#E1EDFA" width="34.016" height="34.016"></rect> <rect x="0.686" y="103.399" clip-path="url(#SVGID_2_)" fill="none" stroke="#000000" width="34.016" height="34.016"></rect> <rect x="131.089" y="227.809" clip-path="url(#SVGID_2_)" width="8.936" height="25.253"></rect> <rect x="131.089" y="216.541" clip-path="url(#SVGID_2_)" width="8.936" height="8.159"></rect> <polygon clip-path="url(#SVGID_2_)" points="39.627,244.125 11.655,244.125 11.655,216.541 0,216.541 0,244.125 0,253.062
		39.627,253.062 	"></polygon> <path clip-path="url(#SVGID_2_)" d="M267.843,253.061v-20.202c0-2.789-2.262-5.051-5.052-5.051h-17.862
		c-1.809,0-3.39,0.953-4.281,2.381v-2.381h-8.936v25.253h8.936v-15.054c0-0.698,0.565-1.264,1.262-1.264h15.735
		c0.697,0,1.262,0.565,1.262,1.264v15.054H267.843z"></path> <path clip-path="url(#SVGID_2_)" d="M172.271,241.601c0,1.394-1.13,2.524-2.525,2.524h-13.792v-7.382h13.792
		c1.396,0,2.525,1.131,2.525,2.526V241.601z M181.207,248.01v-15.15c0-2.79-2.261-5.051-5.05-5.051h-20.203v-11.268h-8.935v36.52
		h29.138C178.946,253.061,181.207,250.799,181.207,248.01"></path> <path clip-path="url(#SVGID_2_)" d="M300.088,244.125h-13.792c-1.394,0-2.525-1.13-2.525-2.525v-2.331
		c0-1.395,1.132-2.525,2.525-2.525h13.792V244.125z M309.024,253.061v-36.519h-8.936v11.266h-20.202c-2.789,0-5.05,2.262-5.05,5.051
		v15.152c0,2.789,2.261,5.05,5.05,5.05H309.024z"></path> <path clip-path="url(#SVGID_2_)" d="M74.204,241.601c0,1.394-1.13,2.524-2.525,2.524H58.082c-1.395,0-2.526-1.131-2.526-2.524
		v-2.331c0-1.396,1.131-2.526,2.526-2.526h13.597c1.395,0,2.525,1.131,2.525,2.526V241.601z M83.14,248.01v-15.15
		c0-2.79-2.261-5.051-5.05-5.051H51.67c-2.789,0-5.05,2.261-5.05,5.051v15.15c0,2.789,2.261,5.051,5.05,5.051h26.419
		C80.878,253.061,83.14,250.799,83.14,248.01"></path> <path clip-path="url(#SVGID_2_)" d="M215.783,241.601c0,1.394-1.13,2.524-2.524,2.524h-13.598c-1.395,0-2.525-1.131-2.525-2.524
		v-2.331c0-1.396,1.131-2.526,2.525-2.526h13.598c1.395,0,2.524,1.131,2.524,2.526V241.601z M224.719,248.01v-15.15
		c0-2.79-2.262-5.051-5.05-5.051h-26.42c-2.789,0-5.05,2.261-5.05,5.051v15.15c0,2.789,2.261,5.051,5.05,5.051h26.42
		C222.458,253.061,224.719,250.799,224.719,248.01"></path> <path clip-path="url(#SVGID_2_)" d="M293.99,226.643c2.789,0,5.05-2.261,5.05-5.05c0-2.79-2.261-5.052-5.05-5.052
		s-5.05,2.262-5.05,5.052C288.94,224.382,291.201,226.643,293.99,226.643"></path> <path clip-path="url(#SVGID_2_)" fill="#FFFFFF" d="M293.99,226.06c2.468,0,4.468-2,4.468-4.468c0-2.467-2-4.468-4.468-4.468
		s-4.468,2.001-4.468,4.468C289.522,224.06,291.522,226.06,293.99,226.06"></path> <path clip-path="url(#SVGID_2_)" d="M294.257,221.23c0.656,0,0.974-0.227,0.974-0.823c0-0.319-0.142-0.79-0.882-0.79h-1.57v1.613
		H294.257z M291.542,218.573h3.051c1.605,0,1.9,1.186,1.9,1.707c0,0.664-0.337,1.236-0.936,1.438
		c0.497,0.218,0.768,0.404,0.768,1.53c0,0.883,0,1.102,0.267,1.202v0.158h-1.395c-0.083-0.284-0.135-0.596-0.135-1.219
		c0-0.823-0.05-1.142-0.981-1.142h-1.303v2.36h-1.236V218.573z"></path> <polygon clip-path="url(#SVGID_2_)" points="128.37,227.808 118.269,227.808 106.92,245.283 95.571,227.808 85.47,227.808
		101.87,253.062 111.971,253.062 	"></polygon></g></svg>